<?xml version="1.0" encoding="UTF-8"?>
<svg width="108px" height="31px" viewBox="0 0 108 31" version="1.1" xmlns="http://www.w3.org/2000/svg" xmlns:xlink="http://www.w3.org/1999/xlink">
    <!-- Generator: Sketch 52.3 (67297) - http://www.bohemiancoding.com/sketch -->
    <title>Logo</title>
    <desc>Created with Sketch.</desc>
    <g id="Symbols" stroke="none" stroke-width="1" fill="none" fill-rule="evenodd">
        <g id="Header" transform="translate(-36.000000, -24.000000)">
            <g id="Logo" transform="translate(36.000000, 24.000000)">
                <g id="Group">
                    <path d="M25.4576534,15.9762064 C24.9581177,16.5013701 24.1275092,16.5222501 23.6023482,16.0227118 L23.3013297,15.7364027 L23.3013297,21.4045322 C23.3013297,22.0526031 22.7760106,22.577925 22.1279429,22.577925 L8.72668871,22.577925 C8.07862107,22.577925 7.5533019,22.0526031 7.5533019,21.4045322 L7.5533019,15.7359282 L7.25196706,16.0227118 C6.72680607,16.5222501 5.89603935,16.5013701 5.39650369,15.9762064 C4.89712621,15.4510427 4.91784792,14.6204299 5.44300891,14.1208917 L13.6228658,6.34103492 C14.6336426,5.37960577 16.2206727,5.37960577 17.2312913,6.34103492 L25.4111482,14.1208917 C25.9363092,14.6204299 25.9571891,15.4510427 25.4576534,15.9762064 M23.7356948,0 C27.74764,0 31,3.25237655 31,7.26434224 L31,23.7358159 C31,27.7477816 27.74764,31 23.7356948,31 L7.26430518,31 C3.25235996,31 0,27.7477816 0,23.7358159 L0,7.26434224 C0,3.25237655 3.25235996,0 7.26430518,0 L23.7356948,0 Z M19.6386957,15.0714063 C19.6901045,14.7124918 19.8248747,14.3806263 19.9661304,14.050659 C20.0080484,13.9525863 20.0528136,13.8556208 20.1067533,13.7342954 C19.8149093,13.8211372 19.5474252,13.9138317 19.2698175,13.9677717 C19.129511,13.9951372 18.988888,14.0131699 18.8449433,14.0161754 C18.6688878,14.0198135 18.5599011,13.9449935 18.4906178,13.7849135 C18.4162727,13.6129699 18.3716657,13.4320099 18.3129805,13.2358644 C18.1285415,13.5169535 17.9482151,13.7798517 17.7435289,14.0244008 C17.6040132,14.1909663 17.4591194,14.3538936 17.2762621,14.4749027 C17.0290252,14.6384627 16.8422134,14.5606372 16.777201,14.2692663 C16.7028559,13.935819 16.7822628,13.6123372 16.8542352,13.2910699 C16.960691,12.8158917 17.1207702,12.3566898 17.2976166,11.9033407 C17.3131183,11.8633207 17.3271964,11.8228261 17.3510818,11.7579716 C17.1501919,11.8755007 16.9754018,11.9890752 16.7832119,12.0703807 C16.4793462,12.1986662 16.3529595,12.1665553 16.1495387,11.9019171 C15.9073636,11.5866607 15.7496571,11.2264807 15.5973288,10.8636115 C15.5395927,10.7259934 15.4272842,10.4286115 15.4272842,10.4286115 C15.4272842,10.4286115 15.3146593,10.7259934 15.2569232,10.8636115 C15.1047531,11.2264807 14.9468884,11.5866607 14.7047133,11.9019171 C14.5012925,12.1665553 14.3749059,12.1986662 14.0710401,12.0703807 C13.8788502,11.9890752 13.7042183,11.8755007 13.5033284,11.7579716 C13.5270556,11.8228261 13.5411337,11.8633207 13.5567936,11.9033407 C13.73364,12.3566898 13.893561,12.8158917 14.000175,13.2910699 C14.0721474,13.6123372 14.1513961,13.935819 14.077051,14.2692663 C14.0120386,14.5606372 13.825385,14.6384627 13.5779899,14.4749027 C13.3952908,14.3538936 13.250397,14.1909663 13.1108813,14.0244008 C12.9061951,13.7798517 12.7257105,13.5169535 12.5414297,13.2358644 C12.4825863,13.4320099 12.4381374,13.6129699 12.3637924,13.7849135 C12.2945091,13.9449935 12.1855224,14.0198135 12.0094669,14.0161754 C11.8655222,14.0131699 11.7248992,13.9951372 11.5845927,13.9677717 C11.306985,13.9138317 11.0393427,13.8211372 10.7474987,13.7342954 C10.8015966,13.8556208 10.8462037,13.9525863 10.8882798,14.050659 C11.0295355,14.3806263 11.1643057,14.7124918 11.2157145,15.0714063 C11.2495653,15.3086791 11.20654,15.4064354 10.9931538,15.5139991 C10.863129,15.5794864 10.7261443,15.6310536 10.5901086,15.6898973 C10.6187393,15.7460518 10.6794809,15.7626609 10.7275679,15.79319 C11.20654,16.0961082 11.676654,16.4118391 12.1181372,16.7680646 C12.3909995,16.9882537 12.6542127,17.219041 12.8653844,17.502661 C12.9827547,17.6602101 13.0370108,17.8244029 12.9843365,18.027192 C12.9373567,18.2075192 12.8729771,18.3823102 12.8261555,18.5624793 C12.8617462,18.5871556 12.8973369,18.5771902 12.9296059,18.571812 C13.19187,18.5294193 13.4535014,18.483072 13.7157655,18.441312 C14.202014,18.3642774 14.6877879,18.2853447 15.1776745,18.2334611 C15.256765,18.2252356 15.2860285,18.2488047 15.2898249,18.3248902 C15.2974176,18.4775356 15.3140266,18.6297065 15.3182975,18.782352 C15.3323756,19.2959684 15.2931467,19.8081612 15.2496469,20.3190885 C15.237467,20.4611357 15.616785,20.4611357 15.6047633,20.3190885 C15.5611053,19.8081612 15.5218764,19.2959684 15.5361127,18.782352 C15.5402254,18.6297065 15.5569926,18.4775356 15.5645853,18.3248902 C15.5683817,18.2488047 15.597487,18.2252356 15.6765775,18.2334611 C16.1664641,18.2853447 16.6523962,18.3642774 17.1384865,18.441312 C17.4009088,18.483072 17.6625402,18.5294193 17.9248043,18.571812 C17.9570732,18.5771902 17.992664,18.5871556 18.0282547,18.5624793 C17.9812749,18.3823102 17.9168953,18.2075192 17.8700737,18.027192 C17.8172412,17.8244029 17.8716555,17.6602101 17.9890258,17.502661 C18.2001975,17.219041 18.4632525,16.9882537 18.7362729,16.7680646 C19.1777562,16.4118391 19.647712,16.0961082 20.1266841,15.79319 C20.1749293,15.7626609 20.2356708,15.7460518 20.2643016,15.6898973 C20.1282659,15.6310536 19.991123,15.5794864 19.8610982,15.5139991 C19.6478702,15.4064354 19.6046868,15.3086791 19.6386957,15.0714063 Z" id="Combined-Shape-Copy" fill="#F52E2E"></path>
                    <path d="M37.3885826,27.1845281 L41.0437508,27.1845281 L41.0437508,25.524346 L37.3885826,25.524346 L37.3885826,27.1845281 Z M42.4503061,25.4562585 L42.4503061,27.261931 C42.4503061,27.656906 42.318715,27.9949721 42.0560017,28.2768067 C41.7932885,28.5583026 41.4796267,28.6990506 41.1154851,28.6990506 L41.0528153,28.6990506 L42.4503061,30.4854147 L42.4503061,30.9999661 L41.01687,30.9999661 L39.2339831,28.6990506 L37.3885826,28.7087047 C37.406399,28.7087047 37.4154634,28.7280131 37.4154634,28.7669686 C37.4034296,28.7669686 37.3943651,28.7637506 37.3885826,28.7571451 L37.3885826,30.9999661 L36,30.9999661 L36,24.0193084 L41.1154851,24.0193084 C41.4796267,24.0193084 41.7932885,24.1600563 42.0560017,24.4417216 C42.318715,24.7232175 42.4503061,25.0616223 42.4503061,25.4562585 Z M49.3752932,24.0097389 L49.3752932,25.5242613 L44.8241493,25.5242613 L44.8241493,26.7474643 L48.4882257,26.7474643 L48.4882257,28.2621561 L44.8241493,28.2621561 L44.8241493,29.4855284 L49.3752932,29.4855284 L49.3752932,30.9998814 L43.4175941,30.9998814 L43.4175941,24.0097389 L49.3752932,24.0097389 Z M51.6685565,27.2329685 L51.6685565,25.524346 L55.3237248,25.524346 L55.3237248,27.2329685 L51.6685565,27.2329685 Z M51.6058867,24.0098236 L55.3954591,24.0098236 C55.7656957,24.0098236 56.0806078,24.1504021 56.3406642,24.431898 C56.6004081,24.7133939 56.73028,25.0517987 56.73028,25.446435 L56.73028,30.9999661 L55.3237248,30.9999661 L55.3237248,28.7476602 L51.6685565,28.7476602 L51.6685565,30.9999661 L50.279974,30.9999661 L50.279974,25.446435 C50.279974,25.0453626 50.4084393,24.7054334 50.6653701,24.4271556 C50.9221446,24.1490472 51.2354938,24.0098236 51.6058867,24.0098236 Z M57.7603317,30.9999661 L57.7603317,24 L59.1490705,24 L59.1490705,29.4854437 L64.2106377,29.4854437 L64.2106377,30.9999661 L57.7603317,30.9999661 Z M68.3495516,26.8350295 L70.5264302,24.0097389 L71.9687745,24.0097389 L71.9687745,30.9998814 L70.5712837,30.9998814 L70.5712837,26.3106545 L68.3495516,29.1843854 L66.1187549,26.3203086 L66.1187549,30.9998814 L64.7303286,30.9998814 L64.7303286,24.0097389 L66.1636084,24.0097389 L68.3495516,26.8350295 Z M74.4503755,27.2329685 L74.4503755,25.524346 L78.1055437,25.524346 L78.1055437,27.2329685 L74.4503755,27.2329685 Z M74.3875494,24.0098236 L78.1769655,24.0098236 C78.5473584,24.0098236 78.8624267,24.1504021 79.1221706,24.431898 C79.3819145,24.7133939 79.5119427,25.0517987 79.5119427,25.446435 L79.5119427,30.9999661 L78.1053875,30.9999661 L78.1053875,28.7476602 L74.4503755,28.7476602 L74.4503755,30.9999661 L73.0616366,30.9999661 L73.0616366,25.446435 C73.0616366,25.0453626 73.1899457,24.7054334 73.4468765,24.4271556 C73.7034947,24.1490472 74.0171565,24.0098236 74.3875494,24.0098236 Z M86.9386325,25.4464688 L86.9386325,26.0970258 L85.5320773,26.0970258 L85.5320773,25.5242105 L81.8770653,25.5242105 L81.8770653,26.7474135 L85.6127198,26.7474135 C85.9768613,26.7474135 86.2891166,26.8881614 86.5488604,27.169996 C86.8087606,27.4514919 86.9386325,27.7898967 86.9386325,28.184533 L86.9386325,29.5632192 C86.9386325,29.9580248 86.8087606,30.2960909 86.5488604,30.5777562 C86.2891166,30.8592521 85.9768613,31 85.6127198,31 L81.8142392,31 C81.4499414,31 81.1378424,30.8607764 80.8779423,30.5824986 C80.6181984,30.3042207 80.4883265,29.9646303 80.4883265,29.5632192 L80.4883265,28.9126622 L81.8770653,28.9126622 L81.8770653,29.4854776 L85.5320773,29.4854776 L85.5320773,28.2622746 L81.8142392,28.2622746 C81.4499414,28.2622746 81.1378424,28.123051 80.8779423,27.8446038 C80.6181984,27.566326 80.4883265,27.2265662 80.4883265,26.8253245 L80.4883265,25.4464688 C80.4883265,25.0453965 80.6181984,24.7054673 80.8779423,24.4271895 C81.1378424,24.1489117 81.4499414,24.0096881 81.8142392,24.0096881 L85.6127198,24.0096881 C85.9768613,24.0096881 86.2891166,24.150436 86.5488604,24.4319319 C86.8087606,24.7134278 86.9386325,25.0518326 86.9386325,25.4464688 Z M87.5745205,24.0097389 L94.0248266,24.0097389 L94.0248266,25.5242613 L91.4983408,25.5242613 L91.4983408,30.9998814 L90.1010063,30.9998814 L90.1010063,25.5242613 L87.5745205,25.5242613 L87.5745205,24.0097389 Z M100.672097,24.0097389 L100.672097,25.5242613 L96.1209533,25.5242613 L96.1209533,26.7474643 L99.7850297,26.7474643 L99.7850297,28.2621561 L96.1209533,28.2621561 L96.1209533,29.4855284 L100.672097,29.4855284 L100.672097,30.9998814 L94.7143981,30.9998814 L94.7143981,24.0097389 L100.672097,24.0097389 Z M102.938277,27.1845281 L102.938277,25.524346 L106.593445,25.524346 L106.593445,27.1845281 L102.938277,27.1845281 Z M108,25.4562585 L108,27.261931 C108,27.656906 107.868722,27.9949721 107.606008,28.2768067 C107.342982,28.5583026 107.029321,28.6990506 106.665179,28.6990506 L106.602509,28.6990506 L108,30.4854147 L108,30.9999661 L106.566564,30.9999661 L104.78399,28.6990506 L102.938277,28.7087047 C102.956405,28.7087047 102.96547,28.7280131 102.96547,28.7669686 C102.953436,28.7669686 102.944372,28.7637506 102.938277,28.7571451 L102.938277,30.9999661 L101.54985,30.9999661 L101.54985,24.0193084 L106.665179,24.0193084 C107.029321,24.0193084 107.342982,24.1600563 107.606008,24.4417216 C107.868722,24.7232175 108,25.0616223 108,25.4562585 Z" id="Combined-Shape-Copy-2" fill="#F53131"></path>
                    <path d="M40.4154262,5.20447193 L54.6355108,5.20447193 L54.6355108,4.20413259 L40.4154262,4.20413259 L40.4154262,5.20447193 Z M58.1659268,1.03974336 L58.1659268,8.35369982 L40.3759958,8.35369982 C40.4432137,12.5950086 40.5577791,16.8073872 39.495177,20.9665463 L36,20.9665463 C36.2227661,19.4722256 36.4536046,18.0134876 36.6527746,16.5504178 C36.7533686,15.811689 36.8533417,15.0653796 36.8567569,14.3220096 C36.8760064,10.0893644 36.8660712,5.85671917 36.8660712,1.62407396 L36.8660712,1.05057289 L45.7335596,1.05057289 C45.6163551,0.73698059 45.5173135,0.471657057 45.3987119,0.154351772 C45.5936904,0.145378731 45.7521881,0.132228585 45.9106858,0.13191917 C46.8919434,0.130062679 47.8735114,0.142593994 48.8544585,0.12418379 C49.1563959,0.118459609 49.3572735,0.177093789 49.4237152,0.496874396 C49.5163921,0.943515235 49.7855743,1.05753474 50.243836,1.05258409 C52.7121156,1.02535555 55.1808609,1.03974336 57.649451,1.03974336 L58.1659268,1.03974336 Z M60.8953317,20.974065 C61.7339258,19.9554702 62.4894678,19.0380541 63.244544,18.1204834 C65.5093069,15.3686993 67.7773299,12.6197 70.0306052,9.85878817 C70.1703192,9.68752685 70.251819,9.42622572 70.2631513,9.20205441 C70.2941989,8.5809034 70.2738627,7.95727707 70.2738627,7.29961506 L61.6858022,7.29961506 L61.6858022,4.07396162 L70.2569418,4.07396162 L70.2569418,0.161870561 L73.7836321,0.161870561 L73.7836321,4.04209185 L82.5196342,4.04209185 L82.5196342,7.27145828 L73.8080044,7.27145828 C73.8080044,8.03370262 73.7958959,8.7600548 73.8193368,9.48532402 C73.8233729,9.6131125 73.9652602,9.74414984 74.0602657,9.86018054 C77.0226669,13.4837419 79.9870862,17.1056015 82.9508845,20.72808 C82.9889178,20.7744922 83.0221386,20.8249269 83.1008442,20.9326034 C82.9342741,20.9493118 82.8103944,20.9722086 82.6863595,20.9723633 C81.4748844,20.975148 80.2630988,20.9655561 79.051779,20.9802533 C78.7616397,20.9838116 78.578304,20.8912965 78.3960549,20.6646498 C76.3636828,18.13812 74.3198231,15.6208727 72.2784473,13.1014594 C72.1922903,12.9950206 72.101321,12.8924495 71.9766651,12.7459414 C71.3392591,13.5118987 70.7156692,14.2605288 70.0928555,15.0097777 C68.5286804,16.892105 66.9615557,18.7721118 65.4052977,20.6609369 C65.2244457,20.8803122 65.0445252,20.9853587 64.7494184,20.9813363 C63.5092243,20.9641638 62.2687198,20.974065 60.8953317,20.974065 Z M49.2477222,20.9475482 L49.2477222,17.8280241 L54.0751493,17.8280241 C54.1114749,17.5551199 54.1411253,17.3324957 54.1791585,17.0473696 C53.9947361,17.0360759 53.8360832,17.0181298 53.677275,17.0181298 C51.0549996,17.0164281 48.432569,17.0218428 45.8102936,17.0103945 C45.4911249,17.0091568 45.3254862,17.0817147 45.2183722,17.4121701 C44.8659826,18.4993004 44.4781988,19.5754465 44.0837398,20.6483437 C44.0331323,20.7861881 43.8651651,20.9770973 43.7478054,20.9797273 C42.6307149,21.0049447 41.5130033,20.994734 40.311153,20.994734 C41.2067193,18.3014294 42.0838124,15.6636648 42.9793787,12.9700508 L41.1454004,12.9700508 L41.1454004,9.77116178 L47.2513653,9.77116178 C47.168934,9.45679594 47.1026475,9.20369431 47.0160249,8.87339358 L48.0272433,8.87339358 C48.7633806,8.87339358 49.5009149,8.90046741 50.235034,8.86333759 C50.6752882,8.8412144 50.9325171,8.95832806 50.9913522,9.41440606 C51.0045474,9.51620366 51.0666425,9.61181296 51.1172499,9.73789965 L58.2246532,9.73789965 L58.2246532,12.9725261 C58.0560651,12.9725261 57.8790941,12.9725261 57.7021231,12.9725261 C54.2057042,12.9725261 50.7092852,12.9725261 47.2128663,12.9725261 C46.4671044,12.9725261 46.4671044,12.9725261 46.3626294,13.7904652 L57.845718,13.7904652 C57.7564563,15.1992326 57.6701441,16.5660742 57.5830558,17.9329159 C57.5267045,18.8169151 57.4672485,19.7009143 57.4132257,20.5850683 C57.3994096,20.8097037 57.3963048,21.0012317 57.0723237,20.999994 C54.5267358,20.9904022 51.9811478,20.993651 49.4355598,20.9907116 C49.3775009,20.9907116 49.319442,20.9647207 49.2477222,20.9475482 Z M106.814025,3.70779967 L102.2623,3.70779967 L102.2623,4.69174 L107,4.69174 L107,19.3428591 L102.83047,19.3428591 L102.83047,16.1886805 C103.045009,16.1729004 103.239832,16.1585125 103.497682,16.1394835 L103.497682,15.5944486 C103.497682,13.2404178 103.497837,10.886387 103.497682,8.53235615 C103.497527,7.93425658 103.497061,7.93410187 102.905605,7.93379245 C102.708143,7.93363774 102.510681,7.93379245 102.253918,7.93379245 L102.253918,20.7424987 L98.7134111,20.7424987 L98.7134111,7.93642248 C98.3138292,7.93642248 97.9660967,7.92265351 97.6210033,7.94678789 C97.5422978,7.95235736 97.4390647,8.07705169 97.4077067,8.16786505 C97.3699839,8.27755274 97.3957534,8.40936361 97.3957534,8.53158262 C97.3954429,12.0166807 97.3955982,15.5019335 97.3955982,18.9870316 L97.3955982,19.5616156 L93.8971611,19.5616156 L93.8971611,4.72438331 L98.679414,4.72438331 L98.679414,3.700219 L94.1416605,3.700219 L94.1416605,0.496534039 L106.814025,0.496534039 L106.814025,3.70779967 Z M89.6007868,0 L93.1296504,0 L93.1296504,0.518889287 C93.1296504,5.22540387 93.1336866,9.93207316 93.1192495,14.6385877 C93.118318,14.9060772 93.0230021,15.2105417 92.8750605,15.4345583 C91.7635585,17.1174676 90.630789,18.7864532 89.4936728,20.4521899 C89.4028587,20.5852384 89.2305448,20.7489191 89.0934699,20.7512397 C87.8071703,20.7741364 86.5202497,20.764854 85.1394102,20.764854 C85.6358604,20.0109638 86.090086,19.3158626 86.5497448,18.6243196 C87.4799292,17.2248347 88.4231535,15.8337039 89.3353303,14.4227706 C89.4894813,14.1842115 89.5888335,13.8636574 89.5897649,13.5806972 C89.6055991,9.24099431 89.6007868,4.90113674 89.6007868,0.56127917 L89.6007868,0 Z M85.3056698,14.1357416 L85.3056698,2.52803047 L88.7663841,2.52803047 L88.7663841,14.1357416 L85.3056698,14.1357416 Z" id="Combined-Shape-Copy-3" fill="#F52E2E"></path>
                </g>
            </g>
        </g>
    </g>
</svg>